<svg width="523" height="580" viewBox="0 0 523 580" fill="none" xmlns="http://www.w3.org/2000/svg">
<g clip-path="url(#clip0)">
<path d="M355.495 358.797C640.455 549.46 547.841 620.506 177.747 555.799C81.0471 538.892 0 467.598 0 358.797C0 249.996 79.5802 161.795 177.747 161.795C275.914 161.795 265.067 298.293 355.495 358.797Z" fill="#3F3D56"/>
<path opacity="0.1" d="M380.972 544.541C443.144 544.541 493.545 540.032 493.545 534.469C493.545 528.906 443.144 524.396 380.972 524.396C318.799 524.396 268.398 528.906 268.398 534.469C268.398 540.032 318.799 544.541 380.972 544.541Z" fill="black"/>
<path opacity="0.1" d="M158.952 212.543C191.905 212.543 218.619 208.033 218.619 202.471C218.619 196.908 191.905 192.398 158.952 192.398C125.999 192.398 99.2854 196.908 99.2854 202.471C99.2854 208.033 125.999 212.543 158.952 212.543Z" fill="black"/>
<path opacity="0.1" d="M155.825 227.266C130.224 227.261 105.143 234.498 83.481 248.142C61.8186 261.786 44.458 281.28 33.4045 304.372C46.1105 290.335 61.62 279.12 78.931 271.451C96.242 263.783 114.969 259.831 133.903 259.852C208.835 259.852 269.583 320.6 269.583 395.532C269.614 415.804 265.082 435.823 256.323 454.105C279.006 429.168 291.554 396.655 291.505 362.945C291.505 288.013 230.757 227.266 155.825 227.266Z" fill="black"/>
<path opacity="0.3" d="M269.583 394.939C269.614 415.211 265.082 435.23 256.323 453.513C243.618 467.549 228.108 478.765 210.797 486.433C193.486 494.102 174.759 498.053 155.825 498.032C80.8928 498.032 20.1447 437.284 20.1447 362.353C20.1141 342.081 24.646 322.062 33.4047 303.779C46.1106 289.742 61.6202 278.527 78.9312 270.859C96.2421 263.19 114.969 259.239 133.903 259.26C208.835 259.26 269.583 320.008 269.583 394.939Z" fill="#2C47E2"/>
<path d="M155.825 498.698C80.643 498.698 19.4778 437.534 19.4778 362.352C19.4232 341.978 23.9787 321.855 32.8033 303.491C43.9112 280.285 61.3571 260.696 83.1259 246.985C104.895 233.274 130.098 226.001 155.825 226.006C231.007 226.006 292.172 287.171 292.172 362.352C292.173 380.258 288.647 397.988 281.796 414.531C274.944 431.074 264.901 446.105 252.24 458.766C239.578 471.427 224.547 481.47 208.004 488.322C191.461 495.173 173.731 498.699 155.825 498.698ZM155.825 227.339C104.166 227.339 56.3483 257.457 34.0058 304.067C25.2676 322.252 20.7567 342.177 20.8111 362.352C20.8111 436.799 81.378 497.365 155.825 497.365C173.556 497.366 191.113 493.875 207.494 487.09C223.875 480.306 238.76 470.361 251.297 457.823C263.834 445.286 273.779 430.402 280.564 414.021C287.349 397.64 290.84 380.083 290.839 362.352C290.839 287.906 230.272 227.339 155.825 227.339V227.339Z" fill="white"/>
<path d="M466.239 500.42C456.384 513.308 457.511 530.725 457.511 530.725C457.511 530.725 474.615 527.248 484.469 514.36C494.324 501.472 493.197 484.055 493.197 484.055C493.197 484.055 476.093 487.532 466.239 500.42Z" fill="#D0CDE1"/>
<path d="M472.696 503.316C470.784 519.426 457.839 531.134 457.839 531.134C457.839 531.134 447.994 516.721 449.907 500.611C451.819 484.5 464.764 472.793 464.764 472.793C464.764 472.793 474.609 487.206 472.696 503.316Z" fill="white"/>
<path d="M115.219 125.927C146.139 125.927 171.205 100.861 171.205 69.9409C171.205 39.0208 146.139 13.9551 115.219 13.9551C84.2986 13.9551 59.2327 39.0208 59.2327 69.9409C59.2327 100.861 84.2986 125.927 115.219 125.927Z" fill="#FF6584"/>
<path d="M236.602 127.021C236.629 182.944 203.393 202.484 162.386 202.503C161.433 202.504 160.485 202.494 159.542 202.473C157.641 202.433 155.761 202.347 153.9 202.216C116.888 199.613 88.1217 179.101 88.0964 127.093C88.0703 73.2718 156.826 5.31645 161.982 0.291799C161.987 0.291799 161.987 0.291798 161.991 0.287232C162.187 0.0957323 162.287 0 162.287 0C162.287 0 236.574 71.1033 236.602 127.021Z" fill="white"/>
<path d="M159.679 193.951L186.818 155.993L159.613 198.116L159.542 202.473C157.641 202.433 155.761 202.347 153.9 202.216L156.798 146.269L156.775 145.836L156.825 145.754L157.101 140.467L129.787 98.2664L157.181 136.507L157.25 137.628L159.44 95.3581L136.053 51.747L159.723 87.9296L161.982 0.291652L161.991 0L161.991 0.287085L161.642 69.3987L184.885 41.9889L161.545 75.3506L160.948 113.199L182.655 76.867L160.864 118.764L160.532 139.809L192.035 89.2355L160.413 147.151L159.679 193.951Z" fill="#3F3D56"/>
<path d="M381.972 159.062C374.855 147.037 360.776 146.477 360.776 146.477C360.776 146.477 347.056 144.723 338.255 163.036C330.052 180.106 318.731 196.587 336.433 200.583L339.63 190.631L341.61 201.324C344.131 201.505 346.659 201.548 349.184 201.453C368.142 200.841 386.196 201.632 385.615 194.829C384.842 185.786 388.819 170.632 381.972 159.062Z" fill="#2F2E41"/>
<path d="M350.576 271.895L352.406 290.2L394.814 285.624L395.73 271.895H350.576Z" fill="#A0616A"/>
<path d="M345.999 281.963L344.779 292.641C344.779 292.641 330.745 312.167 331.965 345.727C333.185 379.287 312.744 528.478 327.389 529.699C342.033 530.919 368.271 532.749 369.492 528.173C370.712 523.597 373.153 349.998 373.153 349.998C373.153 349.998 379.56 528.39 390.543 529C401.527 529.61 438.443 530.83 438.443 526.254C438.443 521.678 406.103 317.353 406.103 317.353L400.917 300.268L395.73 279.217C395.73 279.217 363.39 284.708 354.542 282.573C345.694 280.437 345.999 281.963 345.999 281.963Z" fill="#2F2E41"/>
<path d="M360.644 197.45C371.428 197.45 380.17 188.708 380.17 177.924C380.17 167.141 371.428 158.398 360.644 158.398C349.86 158.398 341.118 167.141 341.118 177.924C341.118 188.708 349.86 197.45 360.644 197.45Z" fill="#A0616A"/>
<path d="M394.815 210.266L391.108 215.66L388.734 219.11L384.747 224.91L364.915 226.436C364.915 226.436 360.098 224.88 354.539 222.607C352.486 221.765 350.329 220.825 348.278 219.827C340.325 215.965 333.942 211.251 341.118 208.13C342.392 207.583 343.616 206.925 344.776 206.165C345.831 205.475 346.814 204.68 347.708 203.792C349.546 201.95 350.907 199.687 351.673 197.2C352.438 194.713 352.585 192.076 352.101 189.519L371.322 186.773C370.764 191.649 375.612 196.967 381.046 201.308C382.831 202.739 384.682 204.06 386.425 205.225C390.992 208.283 394.815 210.266 394.815 210.266Z" fill="#A0616A"/>
<path d="M368.577 216.062C368.577 216.062 349.813 212.859 345.542 206.146C345.542 206.146 327.084 208.435 328.609 218.198C330.135 227.961 345.389 281.352 345.389 281.352C345.389 281.352 383.526 274.03 397.561 279.521L406.103 211.486C406.103 211.486 403.052 204.774 397.256 206.604C391.459 208.435 389.171 206.757 389.171 206.757C389.171 206.757 382.611 216.062 368.577 216.062Z" fill="white"/>
<path d="M385.662 323.15C385.662 323.15 398.781 337.795 391.459 340.236C384.136 342.676 375.289 330.473 375.289 330.473L385.662 323.15Z" fill="#A0616A"/>
<path d="M389.933 324.371C389.933 324.371 379.255 331.693 383.221 336.575C387.187 341.456 400.917 332.304 400.917 330.473C400.917 328.642 389.933 324.371 389.933 324.371Z" fill="#A0616A"/>
<path d="M363.695 284.708L354.847 286.233L349.05 243.215C349.385 235.411 349.127 227.592 348.278 219.827C347.632 214.64 346.552 209.655 344.776 206.165C345.831 205.475 346.814 204.68 347.708 203.791C349.831 207.156 353.706 214.283 354.539 222.606C354.757 224.69 354.758 226.791 354.542 228.876C353.017 243.215 353.322 245.961 353.322 245.961L363.695 284.708Z" fill="#2F2E41"/>
<path d="M343.253 208.74C343.253 208.74 328.914 204.774 327.694 213.316C326.473 221.859 327.999 243.826 331.355 252.063C334.711 260.301 346.304 287.149 346.304 287.149C346.304 287.149 367.356 313.997 368.271 320.404C369.187 326.811 373.763 333.523 373.763 333.523L388.408 324.065L359.729 275.555L347.22 241.995C347.22 241.995 352.406 211.486 343.253 208.74Z" fill="white"/>
<path d="M399.391 209.961L406.103 211.486C406.103 211.486 412.205 237.724 409.764 251.759C407.324 265.793 407.019 270.675 407.019 270.675L404.883 310.642C404.883 310.642 405.493 336.27 401.222 332.303C396.95 328.337 388.408 326.507 388.408 326.507C388.408 326.507 389.323 315.218 392.679 312.472C392.679 312.472 396.645 291.421 394.205 282.268C391.764 273.115 399.391 209.961 399.391 209.961Z" fill="white"/>
<path d="M401.832 239.553L394.052 284.554L389.323 282.571L397.561 239.553L388.734 219.109L381.046 201.307C382.831 202.738 384.683 204.059 386.425 205.224L391.108 215.658L401.832 239.553Z" fill="#2F2E41"/>
<path d="M378.825 157.903L364.916 150.617L345.707 153.598L341.733 171.15L351.626 170.77L354.39 164.321V170.664L358.954 170.488L361.604 160.221L363.26 171.15L379.488 170.819L378.825 157.903Z" fill="#2F2E41"/>
<path d="M351.347 534.469C356.583 534.469 360.827 532.878 360.827 530.914C360.827 528.951 356.583 527.359 351.347 527.359C346.112 527.359 341.867 528.951 341.867 530.914C341.867 532.878 346.112 534.469 351.347 534.469Z" fill="#2F2E41"/>
<path d="M415.336 534.469C420.572 534.469 424.816 532.878 424.816 530.914C424.816 528.951 420.572 527.359 415.336 527.359C410.101 527.359 405.856 528.951 405.856 530.914C405.856 532.878 410.101 534.469 415.336 534.469Z" fill="#2F2E41"/>
<path d="M175.698 432.527C166.001 438.837 154.826 442.51 143.276 443.183C131.726 443.856 120.201 441.505 109.836 436.363L111.304 433.37C123.796 439.507 137.956 441.381 151.615 438.706C165.274 436.03 177.68 428.952 186.933 418.556C196.187 408.159 201.779 395.016 202.853 381.139C203.927 367.262 200.424 353.416 192.88 341.719C185.336 330.022 174.167 321.12 161.082 316.375C147.997 311.63 133.718 311.303 120.43 315.445C107.142 319.587 95.5775 327.969 87.5065 339.308C79.4354 350.648 75.3026 364.319 75.7407 378.231L72.4088 378.333C72.0397 366.628 74.745 355.03 80.2551 344.697C85.7652 334.363 93.8876 325.654 103.813 319.437C113.738 313.221 125.119 309.715 136.821 309.268C148.524 308.821 160.139 311.449 170.51 316.89C180.88 322.331 189.643 330.395 195.925 340.278C202.208 350.162 205.79 361.519 206.315 373.218C206.84 384.918 204.289 396.55 198.917 406.956C193.545 417.363 185.539 426.179 175.698 432.527Z" fill="white"/>
<path d="M145.546 372.248C135.689 374.43 122.57 375.759 113.012 374.371L125.011 383.509L91.4187 405.175L93.2254 407.976L126.818 386.31L130.195 401.013C132.873 391.732 139.495 380.33 145.546 372.248Z" fill="white"/>
</g>
<defs>
<clipPath id="clip0">
<rect width="522.62" height="579.153" fill="white"/>
</clipPath>
</defs>
</svg>
