<svg width="536" height="440" viewBox="0 0 536 440" fill="none" xmlns="http://www.w3.org/2000/svg">
<g clip-path="url(#clip0)">
<path d="M392.297 362.231C396.553 363.726 401.121 364.101 405.563 363.319C410.006 362.536 414.171 360.623 417.659 357.763C426.542 350.307 429.328 338.024 431.594 326.65L438.297 293.008L424.263 302.67C414.172 309.619 403.853 316.791 396.865 326.856C389.877 336.921 386.827 350.661 392.442 361.552" fill="#E6E6E6"/>
<path d="M393.497 402.96C392.077 392.615 390.616 382.136 391.612 371.679C392.497 362.392 395.33 353.322 401.099 345.885C404.16 341.944 407.886 338.568 412.108 335.909C413.208 335.214 414.222 336.958 413.126 337.65C405.821 342.267 400.171 349.084 396.99 357.119C393.477 366.055 392.913 375.795 393.518 385.287C393.884 391.027 394.66 396.729 395.442 402.424C395.504 402.682 395.465 402.953 395.334 403.183C395.204 403.414 394.99 403.586 394.738 403.665C394.48 403.734 394.205 403.699 393.973 403.568C393.74 403.436 393.569 403.218 393.497 402.96Z" fill="#F2F2F2"/>
<path d="M407.177 384.653C409.002 387.427 411.511 389.684 414.461 391.207C417.412 392.729 420.705 393.467 424.023 393.348C432.551 392.943 439.66 386.991 446.06 381.341L464.989 364.628L452.461 364.028C443.451 363.597 434.21 363.195 425.629 365.973C417.048 368.751 409.134 375.438 407.565 384.32" fill="#E6E6E6"/>
<path d="M389.483 408.909C396.319 396.813 404.249 383.369 418.417 379.072C422.357 377.881 426.488 377.455 430.588 377.816C431.88 377.927 431.557 379.919 430.268 379.808C423.395 379.237 416.536 381.052 410.846 384.946C405.369 388.673 401.105 393.856 397.497 399.351C395.286 402.718 393.306 406.227 391.325 409.731C390.693 410.851 388.843 410.042 389.483 408.909V408.909Z" fill="#F2F2F2"/>
<path d="M220.989 323.928C212.602 326.876 203.598 327.615 194.843 326.073C186.089 324.53 177.878 320.759 171.004 315.123C153.497 300.429 148.008 276.22 143.541 253.803C139.138 231.702 134.734 209.601 130.331 187.5L157.988 206.544C177.878 220.239 198.215 234.373 211.987 254.21C225.758 274.047 231.77 301.126 220.705 322.59" fill="#E6E6E6"/>
<path d="M218.625 404.202C221.424 383.812 224.302 363.16 222.339 342.551C220.595 324.248 215.011 306.372 203.643 291.714C197.609 283.949 190.266 277.295 181.946 272.053C179.776 270.683 177.779 274.122 179.939 275.485C194.336 284.584 205.472 298.02 211.741 313.856C218.664 331.466 219.776 350.663 218.583 369.37C217.861 380.683 216.332 391.921 214.791 403.146C214.67 403.653 214.746 404.188 215.003 404.642C215.261 405.096 215.682 405.435 216.18 405.591C216.688 405.728 217.23 405.659 217.687 405.399C218.145 405.139 218.482 404.709 218.625 404.202Z" fill="#F2F2F2"/>
<path d="M191.663 368.122C188.066 373.589 183.122 378.037 177.307 381.038C171.492 384.039 165.002 385.492 158.462 385.257C141.656 384.46 127.644 372.73 115.031 361.593L77.7249 328.654L102.415 327.473C120.172 326.623 138.386 325.831 155.298 331.306C172.21 336.782 187.807 349.96 190.899 367.465" fill="#E6E6E6"/>
<path d="M226.536 415.923C213.062 392.082 197.434 365.586 169.51 357.118C161.745 354.771 153.604 353.931 145.524 354.641C142.977 354.861 143.613 358.786 146.155 358.567C159.699 357.443 173.217 361.019 184.433 368.694C195.226 376.041 203.629 386.254 210.742 397.085C215.099 403.72 219.001 410.635 222.904 417.542C224.152 419.749 227.798 418.156 226.536 415.923Z" fill="#F2F2F2"/>
<path d="M122.544 93.1606L6.53781 68.8561L5.03025 68.541C4.26249 68.379 3.46458 68.437 2.72831 68.7083C1.99204 68.9796 1.3473 69.4532 0.868224 70.0746C0.389149 70.6961 0.0952104 71.4401 0.0201941 72.2212C-0.0548222 73.0022 0.0921445 73.7886 0.444183 74.4899L46.9993 167.633C47.3006 168.231 47.7412 168.749 48.2841 169.141C48.827 169.534 49.4563 169.79 50.119 169.889C50.7837 169.988 51.4627 169.924 52.0972 169.703C52.7317 169.481 53.3026 169.108 53.7607 168.616L85.5114 134.737C85.7373 134.49 86.0118 134.292 86.3177 134.156C86.6236 134.02 86.9544 133.949 87.2891 133.948C87.744 133.939 88.1928 134.053 88.5875 134.28C88.9822 134.506 89.3079 134.836 89.5298 135.233L96.1461 147.299C96.5687 148.104 97.2483 148.744 98.0768 149.117C98.9052 149.491 99.8349 149.577 100.718 149.361L100.75 149.354C101.644 149.159 102.446 148.669 103.028 147.963C103.61 147.257 103.937 146.376 103.958 145.462L105.103 117.511C105.117 117.163 105.202 116.821 105.353 116.506C105.516 116.195 105.737 115.918 106.005 115.691L124.348 100.45C124.951 99.9496 125.401 99.2889 125.645 98.5443C125.89 97.7996 125.92 97.001 125.732 96.2401C125.543 95.4792 125.145 94.7867 124.581 94.242C124.017 93.6974 123.311 93.3226 122.544 93.1607V93.1606ZM123.288 99.1705L104.945 114.411C104.706 114.606 104.49 114.827 104.3 115.07L6.34316 71.3445C6.25675 71.3049 6.16666 71.2739 6.0742 71.2519C5.69681 71.157 5.29813 71.1971 4.94711 71.365C4.59609 71.533 4.31482 71.8183 4.1519 72.1717C3.98899 72.5251 3.95468 72.9243 4.05493 73.3003C4.15519 73.6763 4.38368 74.0054 4.70091 74.2308L85.3774 132.759C84.971 132.973 84.6047 133.256 84.2944 133.595L52.5441 167.474C52.2685 167.767 51.9263 167.99 51.5464 168.123C51.1664 168.255 50.7601 168.295 50.3618 168.237C49.9635 168.179 49.5851 168.026 49.2587 167.79C48.9323 167.555 48.6675 167.244 48.4869 166.884L1.93186 73.7413C1.72371 73.3204 1.63795 72.8495 1.68436 72.3823C1.73077 71.9151 1.90749 71.4703 2.19436 71.0986C2.48123 70.7269 2.86671 70.4433 3.30693 70.28C3.74714 70.1167 4.22437 70.0804 4.68423 70.1751L6.22757 70.499L122.198 94.7948C122.658 94.8917 123.082 95.1162 123.421 95.4427C123.76 95.7693 124 96.1846 124.114 96.6412C124.227 97.0978 124.21 97.5772 124.064 98.0245C123.918 98.4718 123.649 98.8689 123.288 99.1704L123.288 99.1705Z" fill="#CCCCCC"/>
<path d="M122.544 93.1606L6.53781 68.8561L5.03025 68.541C4.26249 68.379 3.46458 68.437 2.72831 68.7083C1.99204 68.9796 1.3473 69.4532 0.868224 70.0746C0.389149 70.6961 0.0952104 71.4401 0.0201941 72.2212C-0.0548222 73.0022 0.0921445 73.7886 0.444183 74.4899L46.9993 167.633C47.3006 168.231 47.7412 168.749 48.2841 169.141C48.827 169.534 49.4563 169.79 50.119 169.889C50.7837 169.988 51.4627 169.924 52.0972 169.703C52.7317 169.481 53.3026 169.108 53.7607 168.616L85.5114 134.737C85.7373 134.49 86.0118 134.292 86.3177 134.156C86.6236 134.02 86.9544 133.949 87.2891 133.948C87.744 133.939 88.1928 134.053 88.5875 134.28C88.9822 134.506 89.3079 134.836 89.5298 135.233L96.1461 147.299C96.5687 148.104 97.2483 148.744 98.0768 149.117C98.9052 149.491 99.8349 149.577 100.718 149.361L100.75 149.354C101.644 149.159 102.446 148.669 103.028 147.963C103.61 147.257 103.937 146.376 103.958 145.462L105.103 117.511C105.117 117.163 105.202 116.821 105.353 116.506C105.516 116.195 105.737 115.918 106.005 115.691L124.348 100.45C124.951 99.9496 125.401 99.2889 125.645 98.5443C125.89 97.7996 125.92 97.001 125.732 96.2401C125.543 95.4792 125.145 94.7867 124.581 94.242C124.017 93.6974 123.311 93.3226 122.544 93.1607V93.1606ZM123.288 99.1705L104.945 114.411C104.706 114.606 104.49 114.827 104.3 115.07C104.129 115.287 103.982 115.521 103.86 115.769C103.733 116.022 103.634 116.288 103.563 116.563L103.565 116.571C103.49 116.857 103.448 117.15 103.439 117.446L102.294 145.396C102.286 145.946 102.092 146.476 101.743 146.9C101.393 147.325 100.91 147.617 100.372 147.73L100.356 147.734C99.8262 147.869 99.2664 147.821 98.7673 147.598C98.2682 147.375 97.8591 146.99 97.6064 146.505L90.9882 134.431C90.6472 133.81 90.1532 133.286 89.553 132.91C88.9529 132.533 88.2665 132.316 87.5589 132.28L87.551 132.281C87.4558 132.277 87.361 132.273 87.268 132.277C86.608 132.282 85.9591 132.447 85.3774 132.759C84.9711 132.973 84.6047 133.256 84.2945 133.595L52.5441 167.474C52.2685 167.767 51.9263 167.99 51.5464 168.123C51.1664 168.255 50.7601 168.295 50.3618 168.237C49.9635 168.179 49.5851 168.026 49.2587 167.79C48.9323 167.555 48.6675 167.244 48.4869 166.884L1.93186 73.7413C1.72371 73.3204 1.63795 72.8495 1.68436 72.3823C1.73077 71.9151 1.90749 71.4703 2.19436 71.0986C2.48123 70.7269 2.86671 70.4433 3.30693 70.28C3.74714 70.1167 4.22437 70.0804 4.68423 70.1751L6.22757 70.499L122.198 94.7948C122.658 94.8917 123.082 95.1162 123.421 95.4427C123.76 95.7693 124 96.1846 124.114 96.6412C124.227 97.0978 124.21 97.5772 124.064 98.0245C123.918 98.4718 123.649 98.8689 123.288 99.1704L123.288 99.1705Z" fill="white"/>
<path d="M104.671 115.236L103.991 116.758L103.565 116.573L103.563 116.564L5.68365 72.8808L87.551 132.283L87.5589 132.281L87.7757 132.446L86.8009 133.795L85.3774 132.76L4.70088 74.2324C4.38364 74.007 4.15514 73.6779 4.05488 73.3019C3.95462 72.9258 3.9889 72.5266 4.15182 72.1732C4.31475 71.8198 4.59605 71.5345 4.94708 71.3666C5.29812 71.1986 5.69682 71.1586 6.07422 71.2535C6.16668 71.2755 6.25677 71.3065 6.34318 71.3461L104.3 115.072L104.671 115.236Z" fill="white"/>
<path d="M356.532 231.684L360.765 273.075L360.849 273.925L362.107 286.2L372.44 387.267V387.284L374.449 406.892C373.664 407.946 372.97 409.063 372.374 410.234C370.553 413.826 369.663 417.818 369.786 421.844C369.908 425.869 371.038 429.8 373.074 433.275C378.115 432.009 383.087 430.564 387.99 428.942C398.132 425.606 408.024 421.551 417.59 416.809C416.595 411.334 413.736 406.373 409.498 402.767L399.123 278.109L398.215 267.175L395.257 231.684H356.532Z" fill="#FFB8B8"/>
<path d="M386.204 118.947C407.6 97.5505 407.6 62.8597 386.204 41.463C364.807 20.0664 330.116 20.0664 308.72 41.463C287.323 62.8597 287.323 97.5505 308.72 118.947C330.116 140.344 364.807 140.344 386.204 118.947Z" fill="#FFB8B8"/>
<path d="M245.34 306.341C245.349 306.449 245.357 306.557 245.366 306.657C245.548 308.795 246.409 310.818 247.822 312.431C249.236 314.044 251.129 315.163 253.224 315.624L334.99 333.482C335.699 333.637 336.423 333.716 337.149 333.716C339.342 333.715 341.474 332.995 343.219 331.665C344.963 330.336 346.224 328.472 346.807 326.357C346.982 325.707 347.174 325.041 347.382 324.349V324.341C350.14 314.974 355.065 302.224 362.107 286.199C363.699 282.574 365.401 278.777 367.215 274.807C367.549 274.074 367.89 273.332 368.224 272.591C371.965 264.466 376.14 255.671 380.748 246.207C383.003 241.581 384.707 236.706 385.823 231.682C388.792 218.42 387.62 204.566 382.465 191.991C381.415 189.431 380.205 186.94 378.84 184.532C373.458 175.045 365.833 167.022 356.631 161.165C347.429 155.309 336.931 151.798 326.057 150.941C324.332 150.799 322.615 150.732 320.89 150.732C303.637 150.808 287.076 157.529 274.649 169.499C267.316 176.609 261.748 185.336 258.39 194.982C258.174 195.591 257.974 196.207 257.774 196.824C254.695 206.584 252.224 216.525 250.374 226.591C249.266 232.566 248.366 238.457 247.641 244.199C245.099 264.809 244.33 285.599 245.34 306.341Z" fill="white"/>
<path d="M209.332 411.042C259.008 439.277 317.667 447.242 373.074 433.275C378.115 432.008 383.087 430.564 387.99 428.942C383.64 414.759 378.448 400.848 372.44 387.283V387.267C362.423 364.808 353.224 351.067 348.74 345C348.003 343.995 347.518 342.828 347.325 341.597C347.132 340.366 347.237 339.107 347.632 337.925L349.024 333.75C349.553 332.17 349.681 330.483 349.394 328.842C349.107 327.201 348.416 325.657 347.382 324.35V324.342C347.29 324.225 347.19 324.108 347.09 323.992C310.665 282.492 247.166 305.133 246.524 305.367L246.207 305.483L246.007 305.758C245.79 306.058 245.574 306.35 245.366 306.658C228.149 330.783 216.707 367.867 209.332 411.042Z" fill="#2F2E41"/>
<path d="M134.461 143.849C134.735 145.052 134.914 146.276 134.995 147.507L230.822 202.79L254.114 189.381L278.945 221.888L240.018 249.633C236.873 251.874 233.086 253.035 229.225 252.941C225.365 252.847 221.639 251.503 218.607 249.111L119.793 171.156C115.333 172.807 110.477 173.061 105.869 171.884C101.262 170.707 97.1223 168.156 94.0004 164.569C90.8786 160.982 88.9228 156.53 88.3931 151.804C87.8634 147.079 88.7849 142.304 91.0352 138.115C93.2854 133.926 96.7577 130.521 100.99 128.353C105.223 126.186 110.015 125.358 114.729 125.981C119.443 126.603 123.856 128.646 127.381 131.838C130.906 135.03 133.375 139.219 134.461 143.849Z" fill="#FFB8B8"/>
<path d="M232.291 201.942V201.951C232.638 203.205 233.227 204.38 234.024 205.409L250.374 226.592L258.166 236.701L264.999 245.551C265.88 246.693 266.997 247.631 268.273 248.303C269.549 248.975 270.956 249.363 272.396 249.442C273.836 249.521 275.276 249.289 276.618 248.761C277.961 248.234 279.173 247.423 280.174 246.384L304.99 220.617L315.232 209.976C321.051 205.435 324.832 198.772 325.746 191.448C326.66 184.123 324.632 176.736 320.107 170.904C315.582 165.073 308.929 161.274 301.607 160.341C294.285 159.408 286.892 161.416 281.049 165.926L274.649 169.501L237.074 190.517C235.116 191.615 233.582 193.336 232.715 195.406C231.849 197.477 231.699 199.777 232.291 201.942H232.291Z" fill="white"/>
<path d="M340.674 215.226L342.24 265.267L342.248 265.584C342.293 267.026 342.648 268.442 343.289 269.735C343.93 271.028 344.843 272.167 345.965 273.075C347.086 273.983 348.391 274.639 349.788 274.997C351.186 275.355 352.645 275.407 354.065 275.151L360.849 273.926L362.582 273.609H362.59L368.224 272.592L398.215 267.176L403.957 266.142C405.376 265.884 406.722 265.324 407.905 264.499C409.088 263.674 410.08 262.605 410.813 261.363C411.546 260.121 412.003 258.736 412.153 257.301C412.303 255.867 412.142 254.417 411.682 253.051L395.507 205.159C394.154 197.904 389.98 191.482 383.9 187.3C377.82 183.118 370.329 181.518 363.071 182.851C355.812 184.183 349.379 188.34 345.18 194.409C340.982 200.478 339.361 207.964 340.674 215.226Z" fill="white"/>
<path d="M338.79 67.6033C324.708 77.2413 306.218 87.1486 291.835 76.8849C282.391 70.1456 279.416 57.666 283.245 46.7143C290.132 27.02 309.054 18.3496 327.148 11.7036C350.67 3.0638 376.281 -3.80956 400.564 2.37785C424.846 8.56526 446.307 32.0756 441.923 56.7478C438.398 76.5886 419.683 93.0977 422.34 113.073C425.013 133.177 447.622 143.759 467.582 147.352C487.542 150.945 509.878 152.1 524.223 166.437C542.522 184.726 537.952 217.417 520.733 236.727C503.515 256.037 477.531 264.79 452.353 270.74C418.993 278.624 382.912 282.768 351.228 269.683C319.545 256.599 294.89 221.378 304.068 188.351C307.944 174.4 317.077 162.61 325.903 151.132C334.73 139.654 343.667 127.651 347.034 113.568C349.839 101.833 347.763 88.2078 339.981 79.4049C338.565 77.8641 337.674 75.9144 337.436 73.8357C337.198 71.757 337.625 69.6563 338.655 67.8352L338.79 67.6033Z" fill="#2F2E41"/>
</g>
<defs>
<clipPath id="clip0">
<rect width="535.967" height="440" fill="white"/>
</clipPath>
</defs>
</svg>
