<?xml version="1.0" standalone="no"?>
<!DOCTYPE svg PUBLIC "-//W3C//DTD SVG 20010904//EN"
 "http://www.w3.org/TR/2001/REC-SVG-20010904/DTD/svg10.dtd">
<svg version="1.0" xmlns="http://www.w3.org/2000/svg"
 width="700.000000pt" height="700.000000pt" viewBox="0 0 700.000000 700.000000"
 preserveAspectRatio="xMidYMid meet">
<metadata>
Created by potrace 1.14, written by Peter Selinger 2001-2017
</metadata>
<g transform="translate(0.000000,700.000000) scale(0.100000,-0.100000)"
fill="#000000" stroke="none">
<path d="M3278 6995 c-1 -1 -42 -5 -89 -9 -47 -4 -95 -8 -106 -10 -11 -3 -44
-7 -74 -11 -30 -4 -88 -13 -129 -21 -41 -8 -88 -17 -105 -20 -136 -24 -490
-135 -612 -190 -28 -13 -55 -24 -58 -24 -13 0 -309 -152 -383 -197 -145 -87
-368 -243 -434 -303 -9 -8 -41 -35 -71 -60 -56 -45 -293 -281 -357 -355 -30
-34 -69 -82 -143 -175 -73 -92 -196 -280 -271 -414 -197 -352 -329 -726 -396
-1120 -22 -131 -24 -149 -37 -286 -4 -47 -8 -886 -8 -1865 0 -1678 1 -1782 18
-1812 22 -41 59 -78 100 -100 30 -17 134 -18 1812 -18 979 0 1821 4 1870 8
854 78 1645 460 2229 1076 76 81 76 80 152 171 315 378 539 800 679 1280 36
127 89 375 100 475 4 33 9 69 11 80 26 129 25 620 -1 825 -7 62 -15 117 -20
140 -3 14 -8 41 -11 60 -8 54 -54 262 -63 290 -5 14 -17 52 -26 85 -116 408
-341 836 -633 1202 -79 99 -323 353 -432 449 -231 205 -584 427 -895 564 -248
109 -588 209 -840 246 -27 4 -57 9 -65 10 -8 2 -42 6 -76 9 -33 4 -74 9 -90
11 -32 5 -540 14 -546 9z"/>
</g>
</svg>
